<svg width="32" height="32" viewBox="0 0 32 32" fill="none" xmlns="http://www.w3.org/2000/svg">
<path d="M16.0003 29.3333C23.3641 29.3333 29.3337 23.3638 29.3337 16C29.3337 8.63616 23.3641 2.66663 16.0003 2.66663C8.63653 2.66663 2.66699 8.63616 2.66699 16C2.66699 23.3638 8.63653 29.3333 16.0003 29.3333Z" fill="#5961FF"/>
<path fill-rule="evenodd" clip-rule="evenodd" d="M15.0569 9.7239C15.5776 9.2032 16.4218 9.2032 16.9425 9.7239L22.2758 15.0572C22.7965 15.5779 22.7965 16.4222 22.2758 16.9428C21.7551 17.4635 20.9109 17.4635 20.3902 16.9428L15.9997 12.5523L11.6092 16.9428C11.0885 17.4635 10.2442 17.4635 9.72353 16.9428C9.20283 16.4222 9.20283 15.5779 9.72353 15.0572L15.0569 9.7239Z" fill="white"/>
<path fill-rule="evenodd" clip-rule="evenodd" d="M16.0003 9.33337C16.7367 9.33337 17.3337 9.93033 17.3337 10.6667V21.3334C17.3337 22.0698 16.7367 22.6667 16.0003 22.6667C15.2639 22.6667 14.667 22.0698 14.667 21.3334V10.6667C14.667 9.93033 15.2639 9.33337 16.0003 9.33337Z" fill="white"/>
</svg>
