<svg width="32" height="32" viewBox="0 0 32 32" fill="none" xmlns="http://www.w3.org/2000/svg">
<path fill-rule="evenodd" clip-rule="evenodd" d="M16 0C7.16344 0 0 7.16344 0 16C0 24.8366 7.16344 32 16 32C24.8366 32 32 24.8366 32 16C32 7.16344 24.8366 0 16 0ZM7.68099 13.252H11.3069V24.1464H7.68099V13.252ZM11.5453 9.8818C11.5218 8.8136 10.7579 8 9.5175 8C8.27709 8 7.46615 8.8136 7.46615 9.8818C7.46615 10.9279 8.25312 11.7649 9.47043 11.7649H9.4936C10.7579 11.7649 11.5453 10.9279 11.5453 9.8818ZM20.2085 12.9961C22.5945 12.9961 24.3833 14.5535 24.3833 17.8998L24.3832 24.1464H20.7574V18.3178C20.7574 16.8538 20.2327 15.8548 18.9201 15.8548C17.9183 15.8548 17.3217 16.5283 17.0596 17.1788C16.9637 17.4119 16.9402 17.7367 16.9402 18.0623V24.1467H13.3138C13.3138 24.1467 13.3616 14.2745 13.3138 13.2522H16.9402V14.7953C17.4214 14.0535 18.2834 12.9961 20.2085 12.9961Z" fill="#5961FF"/>
</svg>
