<svg width="32" height="32" viewBox="0 0 32 32" fill="none" xmlns="http://www.w3.org/2000/svg">
<path fill-rule="evenodd" clip-rule="evenodd" d="M16 0C7.16344 0 0 7.16344 0 16C0 24.8366 7.16344 32 16 32C24.8366 32 32 24.8366 32 16C32 7.16344 24.8366 0 16 0ZM16.221 13.5586L16.1875 13.0049C16.0867 11.57 16.9709 10.2594 18.3698 9.75091C18.8847 9.57013 19.7576 9.54753 20.3284 9.70572C20.5522 9.77351 20.9775 9.99948 21.2797 10.2029L21.8281 10.5757L22.4324 10.3836C22.7682 10.2819 23.2158 10.1125 23.4173 9.99948C23.6075 9.89779 23.7754 9.8413 23.7754 9.8752C23.7754 10.0673 23.3613 10.7226 23.0144 11.0842C22.5443 11.5926 22.6786 11.6378 23.6299 11.2988C24.2007 11.1068 24.2119 11.1068 24.1 11.3214C24.0328 11.4344 23.6859 11.8299 23.3166 12.1914C22.6898 12.8129 22.6563 12.8807 22.6563 13.4004C22.6563 14.2026 22.2757 15.8748 21.8952 16.79C21.1901 18.5074 19.6793 20.2813 18.1684 21.1739C16.042 22.428 13.2105 22.7444 10.8267 22.01C10.0321 21.7614 8.66667 21.1287 8.66667 21.0157C8.66667 20.9818 9.08076 20.9366 9.58438 20.9253C10.6364 20.9027 11.6884 20.609 12.5838 20.0892L13.1881 19.7277L12.4942 19.4904C11.5094 19.1514 10.6252 18.3718 10.4014 17.6374C10.3342 17.4001 10.3566 17.3888 10.9833 17.3888L11.6325 17.3775L11.0841 17.1177C10.435 16.79 9.84179 16.2364 9.55081 15.6714C9.33817 15.2647 9.06957 14.2365 9.14791 14.1574C9.17029 14.1235 9.40532 14.1913 9.67392 14.2817C10.4461 14.5642 10.5469 14.4964 10.0992 14.0218C9.25983 13.1631 9.00242 11.8864 9.40532 10.6774L9.59558 10.1351L10.3342 10.8695C11.8451 12.3496 13.6246 13.2309 15.6615 13.4908L16.221 13.5586Z" fill="#5961FF"/>
</svg>
