<svg width="18" height="19" viewBox="0 0 18 19" fill="none" xmlns="http://www.w3.org/2000/svg">
<path fill-rule="evenodd" clip-rule="evenodd" d="M7.92016 7.00634C7.92016 8.59692 6.63074 9.88634 5.04016 9.88634C3.44958 9.88634 2.16016 8.59692 2.16016 7.00634C2.16016 5.41576 3.44958 4.12634 5.04016 4.12634C6.63074 4.12634 7.92016 5.41576 7.92016 7.00634ZM5.04016 8.44634C5.83545 8.44634 6.48016 7.80163 6.48016 7.00634C6.48016 6.21105 5.83545 5.56634 5.04016 5.56634C4.24487 5.56634 3.60016 6.21105 3.60016 7.00634C3.60016 7.80163 4.24487 8.44634 5.04016 8.44634Z" fill="#A7A7A7"/>
<path fill-rule="evenodd" clip-rule="evenodd" d="M15.8401 4.12634C15.8401 5.71692 14.5507 7.00634 12.9601 7.00634C11.3695 7.00634 10.0801 5.71692 10.0801 4.12634C10.0801 2.53576 11.3695 1.24634 12.9601 1.24634C14.5507 1.24634 15.8401 2.53576 15.8401 4.12634ZM12.9601 5.56634C13.7554 5.56634 14.4001 4.92163 14.4001 4.12634C14.4001 3.33105 13.7554 2.68634 12.9601 2.68634C12.1648 2.68634 11.5201 3.33105 11.5201 4.12634C11.5201 4.92163 12.1648 5.56634 12.9601 5.56634Z" fill="#A7A7A7"/>
<path fill-rule="evenodd" clip-rule="evenodd" d="M0 15.6463C0 12.8628 2.25648 10.6063 5.04 10.6063C7.82351 10.6063 10.08 12.8628 10.08 15.6463V16.3663C10.08 16.764 9.75764 17.0863 9.36 17.0863C8.96235 17.0863 8.64 16.764 8.64 16.3663V15.6463C8.64 13.6581 7.02822 12.0463 5.04 12.0463C3.05177 12.0463 1.44 13.6581 1.44 15.6463V16.3663C1.44 16.764 1.11765 17.0863 0.72 17.0863C0.322355 17.0863 0 16.764 0 16.3663V15.6463Z" fill="#A7A7A7"/>
<path fill-rule="evenodd" clip-rule="evenodd" d="M8.49105 9.73032C9.50437 8.46367 11.0385 7.72632 12.6606 7.72632C15.6096 7.72632 18.0003 10.117 18.0003 13.066V13.4863C18.0003 13.884 17.6779 14.2063 17.2803 14.2063C16.8827 14.2063 16.5603 13.884 16.5603 13.4863V13.066C16.5603 10.9123 14.8144 9.16632 12.6606 9.16632C11.476 9.16632 10.3555 9.70482 9.6155 10.6299L9.56253 10.6961C9.31412 11.0066 8.86103 11.057 8.55052 10.8085C8.24001 10.5601 8.18967 10.107 8.43807 9.79654L8.49105 9.73032L9.05327 10.1801L8.49105 9.73032Z" fill="#A7A7A7"/>
</svg>
