<svg width="86" height="62" viewBox="0 0 86 62" fill="none" xmlns="http://www.w3.org/2000/svg">
<path fill-rule="evenodd" clip-rule="evenodd" d="M75.6258 6.38231C72.2266 2.98309 66.7153 2.98309 63.3161 6.38231L31.818 37.8805L17.1794 23.2419C13.7802 19.8427 8.26896 19.8427 4.86973 23.2419C1.47051 26.6411 1.4705 32.1524 4.86973 35.5516L25.6633 56.3451C29.0625 59.7444 34.5737 59.7444 37.973 56.3451C38.3437 55.9744 38.674 55.5785 38.9639 55.163C39.379 54.8733 39.7745 54.5433 40.145 54.1728L75.6258 18.692C79.025 15.2928 79.025 9.78153 75.6258 6.38231Z" fill="#F3BA00"/>
<mask id="path-2-inside-1" fill="white">
<path fill-rule="evenodd" clip-rule="evenodd" d="M82.4384 2.86703C78.6157 -0.955677 72.4178 -0.955679 68.5951 2.86703L33.1727 38.2895L16.7103 21.8271C12.8876 18.0044 6.68975 18.0044 2.86704 21.8271C-0.955674 25.6498 -0.955682 31.8476 2.86703 35.6703L26.2511 59.0544C30.0738 62.8771 36.2717 62.8771 40.0944 59.0544C40.5112 58.6376 40.8826 58.1925 41.2085 57.7254C41.6755 57.3995 42.1205 57.0282 42.5372 56.6115L82.4384 16.7103C86.2611 12.8876 86.2611 6.68975 82.4384 2.86703Z"/>
</mask>
<path d="M68.5951 2.86703L70.0094 4.28125V4.28125L68.5951 2.86703ZM82.4384 2.86703L81.0242 4.28125V4.28125L82.4384 2.86703ZM33.1727 38.2895L31.7585 39.7037L33.1727 41.1179L34.5869 39.7037L33.1727 38.2895ZM16.7103 21.8271L15.2961 23.2413L16.7103 21.8271ZM2.86704 21.8271L1.45282 20.4129L1.45282 20.4129L2.86704 21.8271ZM2.86703 35.6703L1.45282 37.0845H1.45282L2.86703 35.6703ZM26.2511 59.0544L24.8369 60.4686L26.2511 59.0544ZM41.2085 57.7254L40.064 56.0852L39.772 56.289L39.5682 56.581L41.2085 57.7254ZM42.5372 56.6115L43.9514 58.0257L42.5372 56.6115ZM82.4384 16.7103L81.0242 15.2961V15.2961L82.4384 16.7103ZM70.0094 4.28125C73.051 1.23958 77.9825 1.23958 81.0242 4.28125L83.8526 1.45282C79.2489 -3.15094 71.7847 -3.15094 67.1809 1.45282L70.0094 4.28125ZM34.5869 39.7037L70.0094 4.28125L67.1809 1.45282L31.7585 36.8753L34.5869 39.7037ZM15.2961 23.2413L31.7585 39.7037L34.5869 36.8753L18.1245 20.4129L15.2961 23.2413ZM4.28125 23.2413C7.32291 20.1996 12.2544 20.1996 15.2961 23.2413L18.1245 20.4129C13.5208 15.8091 6.05658 15.8091 1.45282 20.4129L4.28125 23.2413ZM4.28124 34.2561C1.23958 31.2145 1.23959 26.283 4.28125 23.2413L1.45282 20.4129C-3.15093 25.0166 -3.15095 32.4808 1.45282 37.0845L4.28124 34.2561ZM27.6653 57.6402L4.28124 34.2561L1.45282 37.0845L24.8369 60.4686L27.6653 57.6402ZM38.6802 57.6402C35.6385 60.6819 30.707 60.6819 27.6653 57.6402L24.8369 60.4686C29.4407 65.0724 36.9048 65.0724 41.5086 60.4686L38.6802 57.6402ZM39.5682 56.581C39.3093 56.9522 39.0135 57.3069 38.6802 57.6402L41.5086 60.4686C42.0089 59.9683 42.4558 59.4329 42.8487 58.8698L39.5682 56.581ZM41.123 55.1973C40.7898 55.5305 40.4351 55.8263 40.064 56.0852L42.3529 59.3656C42.9159 58.9728 43.4512 58.5259 43.9514 58.0257L41.123 55.1973ZM81.0242 15.2961L41.123 55.1973L43.9514 58.0257L83.8526 18.1245L81.0242 15.2961ZM81.0242 4.28125C84.0659 7.32291 84.0659 12.2544 81.0242 15.2961L83.8526 18.1245C88.4564 13.5208 88.4564 6.05658 83.8526 1.45282L81.0242 4.28125Z" fill="#F2545B" mask="url(#path-2-inside-1)"/>
</svg>
