<svg width="61" height="91" viewBox="0 0 61 91" fill="none" xmlns="http://www.w3.org/2000/svg">
<path d="M16.8388 49.478C16.8388 52.5942 17.6305 55.3855 19.0693 57.7569C20.0496 59.3726 22.0703 59.8805 23.8857 59.3554L28.9098 57.9024C31.301 57.2108 32.1918 53.6749 32.1918 51.1857C32.1918 46.6726 36.0301 43.9891 40.3636 40.8178C46.3067 36.7926 52.8689 31.9136 52.8689 21.7896C52.8689 10.4459 43.0876 2.51756 27.1154 2.51756C18.0417 2.51756 9.50736 5.61765 3.12145 11.214C1.22069 12.8797 1.27378 15.7589 2.96816 17.6342L6.2053 21.217C8.23086 23.4588 11.7431 23.3401 14.1896 21.5672C17.3516 19.276 21.0793 17.8864 25.2582 17.8864C32.068 17.8864 34.9158 21.0578 34.9158 24.839C34.9158 28.4983 31.5728 30.8158 27.7345 33.4993C22.7819 37.0365 16.8388 41.0617 16.8388 49.478ZM16.8388 76.5565C16.8388 81.9234 21.42 86.4365 26.8678 86.4365C32.3157 86.4365 36.8968 81.9234 36.8968 76.5565C36.8968 71.1896 32.3157 66.6765 26.8678 66.6765C21.42 66.6765 16.8388 71.1896 16.8388 76.5565Z" fill="#F5C26B"/>
<path d="M31.8346 32.0242L31.8346 32.0242L31.8264 32.0301C31.6754 32.1392 31.523 32.2491 31.3695 32.3598C26.3129 36.0053 19.9976 40.5584 19.9976 49.7781C19.9976 53.3087 20.8997 56.4911 22.5537 59.1952C23.8421 61.3016 26.4014 61.8691 28.5471 61.2412L33.8745 59.6822C35.57 59.1861 36.6118 57.7294 37.2164 56.2468C37.8296 54.7428 38.0817 53.012 38.0817 51.5882C38.0817 49.5182 38.9374 47.8403 40.3995 46.2327C41.8206 44.6701 43.7449 43.2464 45.913 41.6422C46.0158 41.5661 46.1191 41.4897 46.223 41.4128C52.453 37.1427 59.7434 31.7066 59.7434 20.4284C59.7434 14.1037 57.036 8.70597 52.1406 4.91448C47.2669 1.13982 40.287 -1 31.7636 -1C21.924 -1 12.6496 2.43856 5.74106 8.66897C3.41107 10.7703 3.54745 14.2562 5.52553 16.4713L9.27383 20.6688C11.7403 23.4309 15.9011 23.1802 18.6313 21.1342C21.8326 18.7351 25.5971 17.291 29.8179 17.291C33.2407 17.291 35.5166 18.0983 36.9182 19.2464C38.2979 20.3765 38.9354 21.9209 38.9354 23.6607C38.9354 25.2577 38.2282 26.6078 36.9557 27.9508C35.6604 29.3179 33.8723 30.5828 31.8384 32.0215L31.8346 32.0242ZM19.9976 78.4813C19.9976 84.7255 25.2476 89.9541 31.5042 89.9541C37.7607 89.9541 43.0107 84.7255 43.0107 78.4813C43.0107 72.237 37.7607 67.0085 31.5042 67.0085C25.2476 67.0085 19.9976 72.237 19.9976 78.4813Z" stroke="#F2545B" stroke-width="2"/>
</svg>
