<svg width="26" height="26" viewBox="0 0 26 26" fill="none" xmlns="http://www.w3.org/2000/svg">
<path d="M24.9076 5.82406C24.5696 5.64206 24.1536 5.66806 23.8156 5.90206L19.2396 9.17806V8.84006C19.2396 8.21606 19.0966 7.62326 18.847 7.09026V7.11106C18.197 5.66286 16.741 4.65406 15.0536 4.65406H6.12517L3.33537 1.86426C2.92977 1.45866 2.26937 1.45866 1.86377 1.86426C1.45817 2.26986 1.45817 2.93026 1.86377 3.33586L22.6638 24.1359C22.8588 24.3309 23.124 24.4401 23.3996 24.4401C23.9742 24.4401 24.4396 23.9747 24.4396 23.4001C24.4396 23.1245 24.3304 22.8593 24.1354 22.6643L19.198 17.7269C19.2266 17.5423 19.2396 17.3525 19.2396 17.1601V16.8221L23.8416 20.0981C24.3096 20.4361 24.9596 20.3321 25.2976 19.8641C25.4276 19.6821 25.4796 19.4741 25.4796 19.2661V6.76006C25.4796 6.37006 25.2716 6.00606 24.9076 5.82406ZM8.20517 6.73406H15.0536C16.2002 6.73406 17.1336 7.66746 17.1336 8.81406V15.6625L8.20517 6.73406ZM23.3996 17.2121L19.2396 14.2741V11.7521L23.3996 8.78806V17.2121Z" fill="white"/>
<path d="M14.8615 21.3199H4.7059C2.4127 21.3199 0.545898 19.4531 0.545898 17.1599V8.81393C0.545898 8.23933 1.0113 7.77393 1.5859 7.77393C2.1605 7.77393 2.6259 8.23933 2.6259 8.81393V17.1599C2.6259 18.3065 3.5593 19.2399 4.7059 19.2399H14.8615C15.4361 19.2399 15.9015 19.7053 15.9015 20.2799C15.9015 20.8545 15.4361 21.3199 14.8615 21.3199Z" fill="white"/>
</svg>
