<svg width="24" height="24" viewBox="0 0 24 24" fill="none" xmlns="http://www.w3.org/2000/svg">
<path d="M4.32047 4.31982C2.20847 4.31982 0.480469 6.04782 0.480469 8.15982V15.8398C0.480469 17.9518 2.20847 19.6798 4.32047 19.6798H13.9205C16.0325 19.6798 17.7605 17.9518 17.7605 15.8398V15.5278L22.0085 18.5518C22.4405 18.8638 23.0405 18.7678 23.3525 18.3358C23.4725 18.1678 23.5205 17.9758 23.5205 17.7838V6.23982C23.5205 5.87982 23.3285 5.54382 22.9925 5.37582C22.6805 5.20782 22.2965 5.23182 21.9845 5.44782L17.7605 8.47182V8.15982C17.7605 6.04782 16.0325 4.31982 13.9205 4.31982H4.32047ZM15.8405 15.8398C15.8405 16.8958 14.9765 17.7598 13.9205 17.7598H4.32047C3.26447 17.7598 2.40047 16.8958 2.40047 15.8398V8.15982C2.40047 7.10382 3.26447 6.23982 4.32047 6.23982H13.9205C14.9765 6.23982 15.8405 7.10382 15.8405 8.15982V15.8398ZM21.6005 15.8878L17.7605 13.1758V10.8478L21.6005 8.11182V15.8878Z" fill="#FE7009"/>
</svg>
