<svg width="26" height="26" viewBox="0 0 26 26" fill="none" xmlns="http://www.w3.org/2000/svg">
<path d="M4.67953 4.68005C2.39153 4.68005 0.519531 6.55205 0.519531 8.84005V17.1601C0.519531 19.4481 2.39153 21.3201 4.67953 21.3201H15.0795C17.3675 21.3201 19.2395 19.4481 19.2395 17.1601V16.8221L23.8415 20.0981C24.3095 20.4361 24.9595 20.3321 25.2975 19.8641C25.4275 19.6821 25.4795 19.4741 25.4795 19.2661V6.76005C25.4795 6.37005 25.2715 6.00605 24.9075 5.82405C24.5695 5.64205 24.1535 5.66805 23.8155 5.90205L19.2395 9.17805V8.84005C19.2395 6.55205 17.3675 4.68005 15.0795 4.68005H4.67953ZM17.1595 17.1601C17.1595 18.3041 16.2235 19.2401 15.0795 19.2401H4.67953C3.53553 19.2401 2.59953 18.3041 2.59953 17.1601V8.84005C2.59953 7.69605 3.53553 6.76005 4.67953 6.76005H15.0795C16.2235 6.76005 17.1595 7.69605 17.1595 8.84005V17.1601ZM23.3995 17.2121L19.2395 14.2741V11.7521L23.3995 8.78805V17.2121Z" fill="white"/>
</svg>
