<svg width="25" height="25" viewBox="0 0 25 25" fill="none" xmlns="http://www.w3.org/2000/svg">
<path d="M12.4998 0.500015C10.3922 0.496723 8.32102 1.04927 6.49512 2.10192C4.66922 3.15457 3.1532 4.6701 2.09996 6.49566C1.04671 8.32122 0.493495 10.3922 0.496103 12.4998C0.498711 14.6074 1.05705 16.6771 2.11481 18.5L0.552311 23.1825C0.493551 23.3587 0.485024 23.5478 0.527684 23.7286C0.570345 23.9093 0.662508 24.0746 0.793843 24.206C0.925178 24.3373 1.09049 24.4295 1.27127 24.4721C1.45204 24.5148 1.64111 24.5063 1.81731 24.4475L6.49981 22.885C8.09374 23.8079 9.8787 24.3514 11.7164 24.4736C13.5542 24.5958 15.3954 24.2933 17.0974 23.5895C18.7995 22.8858 20.3167 21.7997 21.5316 20.4155C22.7465 19.0312 23.6265 17.3858 24.1033 15.6068C24.5801 13.8278 24.6411 11.9629 24.2814 10.1565C23.9217 8.35021 23.1511 6.65091 22.0291 5.19025C20.9072 3.7296 19.4641 2.5468 17.8116 1.73346C16.1591 0.920122 14.3416 0.498077 12.4998 0.500015ZM12.4998 22.5C10.6091 22.4988 8.75782 21.9594 7.16231 20.945C7.00226 20.8437 6.81672 20.79 6.62731 20.79C6.52015 20.7902 6.41373 20.8079 6.31231 20.8425L3.07981 21.92L4.15731 18.6875C4.20422 18.5471 4.21935 18.398 4.20163 18.251C4.1839 18.104 4.13376 17.9628 4.05481 17.8375C2.87057 15.9613 2.34394 13.7445 2.5578 11.5361C2.77167 9.32772 3.71389 7.25317 5.23615 5.63904C6.7584 4.02491 8.77423 2.96286 10.9663 2.62008C13.1584 2.27731 15.4022 2.67327 17.3445 3.74564C19.2869 4.81802 20.8174 6.50589 21.6953 8.54356C22.5731 10.5812 22.7483 12.853 22.1934 15.0012C21.6385 17.1494 20.3849 19.052 18.63 20.4096C16.8751 21.7671 14.7185 22.5026 12.4998 22.5Z" fill="white"/>
<path d="M12.5 14C13.3284 14 14 13.3284 14 12.5C14 11.6716 13.3284 11 12.5 11C11.6716 11 11 11.6716 11 12.5C11 13.3284 11.6716 14 12.5 14Z" fill="white"/>
<path d="M7.5 14C8.32843 14 9 13.3284 9 12.5C9 11.6716 8.32843 11 7.5 11C6.67157 11 6 11.6716 6 12.5C6 13.3284 6.67157 14 7.5 14Z" fill="white"/>
<path d="M17.5 14C18.3284 14 19 13.3284 19 12.5C19 11.6716 18.3284 11 17.5 11C16.6716 11 16 11.6716 16 12.5C16 13.3284 16.6716 14 17.5 14Z" fill="white"/>
</svg>
