<svg width="26" height="26" viewBox="0 0 26 26" fill="none" xmlns="http://www.w3.org/2000/svg">
<path fill-rule="evenodd" clip-rule="evenodd" d="M21.7065 5.52132C22.097 5.13079 22.097 4.49763 21.7065 4.1071C21.3159 3.71658 20.6828 3.71658 20.2923 4.1071L12.8136 11.5858L5.66609 4.43831C5.27557 4.04778 4.6424 4.04778 4.25188 4.43831C3.86135 4.82883 3.86135 5.462 4.25188 5.85252L11.3994 13L4.25196 20.1474C3.86144 20.5379 3.86144 21.1711 4.25196 21.5616C4.64249 21.9521 5.27565 21.9521 5.66618 21.5616L12.8136 14.4142L20.2922 21.8928C20.6827 22.2833 21.3159 22.2833 21.7064 21.8928C22.0969 21.5023 22.0969 20.8691 21.7064 20.4786L14.2278 13L21.7065 5.52132Z" fill="#4E596D"/>
</svg>
