<svg width="26" height="26" viewBox="0 0 26 26" fill="none" xmlns="http://www.w3.org/2000/svg">
<path fill-rule="evenodd" clip-rule="evenodd" d="M21.707 5.52156C22.0975 5.13104 22.0975 4.49787 21.707 4.10735C21.3164 3.71682 20.6833 3.71682 20.2927 4.10735L12.8141 11.586L5.66658 4.43855C5.27606 4.04803 4.64289 4.04803 4.25237 4.43855C3.86184 4.82908 3.86184 5.46224 4.25237 5.85277L11.3998 13.0002L4.25245 20.1476C3.86193 20.5382 3.86193 21.1713 4.25245 21.5618C4.64298 21.9524 5.27614 21.9524 5.66667 21.5618L12.8141 14.4145L20.2927 21.8931C20.6832 22.2836 21.3163 22.2836 21.7069 21.8931C22.0974 21.5025 22.0974 20.8694 21.7069 20.4788L14.2283 13.0002L21.707 5.52156Z" fill="#FE7009"/>
</svg>
