<svg width="24" height="24" viewBox="0 0 24 24" fill="none" xmlns="http://www.w3.org/2000/svg">
<path fill-rule="evenodd" clip-rule="evenodd" d="M3 13C3.55228 13 4 13.4477 4 14V18C4 19.1046 4.89543 20 6 20H18C19.1046 20 20 19.1046 20 18V14C20 13.4477 20.4477 13 21 13C21.5523 13 22 13.4477 22 14V18C22 20.2091 20.2091 22 18 22H6C3.79086 22 2 20.2091 2 18V14C2 13.4477 2.44772 13 3 13Z" fill="#5961FF"/>
<path fill-rule="evenodd" clip-rule="evenodd" d="M12.9998 3C12.9998 2.44772 12.552 2 11.9998 2C11.4475 2 10.9998 2.44772 10.9998 3L10.9998 11.4924L8.45711 8.94975C8.06658 8.55922 7.43342 8.55922 7.04289 8.94975C6.65237 9.34027 6.65237 9.97344 7.04289 10.364L11.0861 14.4072C11.2421 14.7565 11.5925 15 11.9998 15C12.4166 15 12.774 14.7449 12.9241 14.3823L16.9424 10.364C17.3329 9.97344 17.3329 9.34027 16.9424 8.94975C16.5519 8.55922 15.9187 8.55922 15.5282 8.94975L12.9998 11.4782L12.9998 3Z" fill="#5961FF"/>
</svg>
