<svg width="35" height="50" viewBox="0 0 35 50" fill="none" xmlns="http://www.w3.org/2000/svg">
<g opacity="0.4" filter="url(#filter0_d)">
<rect x="12.8164" y="5.75" width="9.40888" height="25.1662" rx="4.70444" stroke="#FF3F02" stroke-width="1.5"/>
<rect x="12.8164" y="5.75" width="9.40888" height="25.1662" rx="4.70444" stroke="#FF3F02" stroke-width="1.5"/>
<rect x="12.8164" y="5.75" width="9.40888" height="25.1662" rx="4.70444" stroke="#FF3F02" stroke-width="1.5"/>
<path d="M6 25.6055C6 31.6303 11.1554 36.5144 17.5149 36.5144C23.8745 36.5144 29.0299 31.6303 29.0299 25.6055" stroke="#FF3F02" stroke-width="1.5" stroke-linecap="round"/>
<path d="M6 25.6055C6 31.6303 11.1554 36.5144 17.5149 36.5144C23.8745 36.5144 29.0299 31.6303 29.0299 25.6055" stroke="#FF3F02" stroke-width="1.5" stroke-linecap="round"/>
<path d="M6 25.6055C6 31.6303 11.1554 36.5144 17.5149 36.5144C23.8745 36.5144 29.0299 31.6303 29.0299 25.6055" stroke="#FF3F02" stroke-width="1.5" stroke-linecap="round"/>
<rect x="16.9141" y="36.5156" width="1.2121" height="8.48469" fill="#FF3F02"/>
</g>
<defs>
<filter id="filter0_d" x="0.25" y="0" width="34.5299" height="50.0003" filterUnits="userSpaceOnUse" color-interpolation-filters="sRGB">
<feFlood flood-opacity="0" result="BackgroundImageFix"/>
<feColorMatrix in="SourceAlpha" type="matrix" values="0 0 0 0 0 0 0 0 0 0 0 0 0 0 0 0 0 0 127 0"/>
<feOffset/>
<feGaussianBlur stdDeviation="2.5"/>
<feColorMatrix type="matrix" values="0 0 0 0 1 0 0 0 0 0.21075 0 0 0 0 0.0375 0 0 0 0.92 0"/>
<feBlend mode="normal" in2="BackgroundImageFix" result="effect1_dropShadow"/>
<feBlend mode="normal" in="SourceGraphic" in2="effect1_dropShadow" result="shape"/>
</filter>
</defs>
</svg>
