<svg width="24" height="24" viewBox="0 0 24 24" fill="none" xmlns="http://www.w3.org/2000/svg">
<path d="M15.8402 11.04V4.31998C15.8402 3.30155 15.4356 2.32483 14.7154 1.60469C13.9953 0.884551 13.0186 0.47998 12.0002 0.47998C10.9817 0.47998 10.005 0.884551 9.28487 1.60469C8.56473 2.32483 8.16016 3.30155 8.16016 4.31998V11.04C8.16016 12.0584 8.56473 13.0351 9.28487 13.7553C10.005 14.4754 10.9817 14.88 12.0002 14.88C13.0186 14.88 13.9953 14.4754 14.7154 13.7553C15.4356 13.0351 15.8402 12.0584 15.8402 11.04ZM10.0802 11.04V4.31998C10.0802 3.81077 10.2824 3.32241 10.6425 2.96234C11.0026 2.60227 11.4909 2.39998 12.0002 2.39998C12.5094 2.39998 12.9977 2.60227 13.3578 2.96234C13.7179 3.32241 13.9202 3.81077 13.9202 4.31998V11.04C13.9202 11.5492 13.7179 12.0376 13.3578 12.3976C12.9977 12.7577 12.5094 12.96 12.0002 12.96C11.4909 12.96 11.0026 12.7577 10.6425 12.3976C10.2824 12.0376 10.0802 11.5492 10.0802 11.04Z" fill="#7D8086"/>
<path d="M12.0003 23.5201C12.255 23.5201 12.4991 23.4189 12.6792 23.2389C12.8592 23.0589 12.9604 22.8147 12.9604 22.5601V19.6225C15.0717 19.3864 17.0221 18.3807 18.4389 16.7975C19.8556 15.2143 20.6393 13.1646 20.6403 11.0401C20.6403 10.7855 20.5392 10.5413 20.3592 10.3613C20.1791 10.1812 19.935 10.0801 19.6803 10.0801C19.4257 10.0801 19.1816 10.1812 19.0015 10.3613C18.8215 10.5413 18.7203 10.7855 18.7203 11.0401C18.7203 12.8223 18.0124 14.5316 16.7521 15.7918C15.4919 17.0521 13.7826 17.7601 12.0003 17.7601C10.2181 17.7601 8.50884 17.0521 7.24859 15.7918C5.98835 14.5316 5.28035 12.8223 5.28035 11.0401C5.28035 10.7855 5.17921 10.5413 4.99917 10.3613C4.81914 10.1812 4.57496 10.0801 4.32035 10.0801C4.06574 10.0801 3.82156 10.1812 3.64153 10.3613C3.46149 10.5413 3.36035 10.7855 3.36035 11.0401C3.36136 13.1646 4.14511 15.2143 5.56184 16.7975C6.97858 18.3807 8.92897 19.3864 11.0403 19.6225V22.5601C11.0403 22.8147 11.1415 23.0589 11.3215 23.2389C11.5016 23.4189 11.7457 23.5201 12.0003 23.5201Z" fill="#7D8086"/>
</svg>
