<svg width="26" height="26" viewBox="0 0 26 26" fill="none" xmlns="http://www.w3.org/2000/svg">
<path d="M11.9596 24.44C11.9596 24.7159 12.0692 24.9804 12.2643 25.1754C12.4593 25.3705 12.7238 25.48 12.9996 25.48C13.2755 25.48 13.54 25.3705 13.735 25.1754C13.9301 24.9804 14.0396 24.7159 14.0396 24.44V21.255C14.478 21.208 14.9124 21.1298 15.3396 21.021C15.5973 20.9439 15.8151 20.7699 15.9472 20.5356C16.0794 20.3013 16.1156 20.025 16.0483 19.7645C15.981 19.5041 15.8154 19.2799 15.5863 19.1389C15.3572 18.998 15.0824 18.9513 14.8196 19.0086C13.7439 19.2864 12.6188 19.3143 11.5306 19.0901C10.4425 18.8659 9.42003 18.3956 8.54167 17.7152C7.6633 17.0349 6.95232 16.1625 6.46317 15.1649C5.97402 14.1674 5.71968 13.0711 5.71965 11.96C5.71965 11.6842 5.61008 11.4197 5.41504 11.2247C5.22 11.0296 4.95547 10.92 4.67965 10.92C4.40382 10.92 4.1393 11.0296 3.94426 11.2247C3.74922 11.4197 3.63965 11.6842 3.63965 11.96C3.64074 14.2616 4.4898 16.4821 6.0246 18.1973C7.55939 19.9124 9.67231 21.0019 11.9596 21.2576V24.44Z" fill="white"/>
<path d="M23.4001 24.44C23.606 24.4402 23.8072 24.3793 23.9784 24.265C24.1495 24.1507 24.283 23.9883 24.3618 23.7981C24.4405 23.608 24.4611 23.3987 24.4209 23.1969C24.3807 22.9951 24.2816 22.8097 24.1359 22.6642L19.8251 18.3534C21.4536 16.6229 22.3602 14.3362 22.3601 11.96C22.3601 11.6842 22.2506 11.4197 22.0555 11.2246C21.8605 11.0296 21.596 10.92 21.3201 10.92C21.0443 10.92 20.7798 11.0296 20.5848 11.2246C20.3897 11.4197 20.2801 11.6842 20.2801 11.96C20.2788 13.7848 19.59 15.5421 18.3509 16.8818L16.1461 14.6744C16.7999 13.9212 17.16 12.9574 17.1601 11.96V4.68002C17.1601 3.57672 16.7219 2.51861 15.9417 1.73846C15.1616 0.958304 14.1034 0.52002 13.0001 0.52002C11.8968 0.52002 10.8387 0.958304 10.0586 1.73846C9.27843 2.51861 8.84015 3.57672 8.84015 4.68002V7.36842L3.33595 1.86422C3.1408 1.66907 2.87613 1.55944 2.60015 1.55944C2.32417 1.55944 2.05949 1.66907 1.86435 1.86422C1.6692 2.05937 1.55957 2.32404 1.55957 2.60002C1.55957 2.876 1.6692 3.14067 1.86435 3.33582L9.14435 10.6158L22.6643 24.1358C22.761 24.2324 22.8757 24.3089 23.002 24.3611C23.1282 24.4133 23.2635 24.4401 23.4001 24.44ZM10.9201 4.68002C10.9201 4.12837 11.1393 3.59931 11.5294 3.20924C11.9194 2.81916 12.4485 2.60002 13.0001 2.60002C13.5518 2.60002 14.0809 2.81916 14.4709 3.20924C14.861 3.59931 15.0801 4.12837 15.0801 4.68002V11.96C15.076 12.4046 14.9283 12.836 14.6589 13.1898L10.9201 9.44842V4.68002Z" fill="white"/>
</svg>
