<svg width="26" height="26" viewBox="0 0 26 26" fill="none" xmlns="http://www.w3.org/2000/svg">
<path d="M17.1598 11.96V4.68002C17.1598 3.57672 16.7216 2.51861 15.9414 1.73846C15.1613 0.958304 14.1031 0.52002 12.9998 0.52002C11.8965 0.52002 10.8384 0.958304 10.0583 1.73846C9.27813 2.51861 8.83984 3.57672 8.83984 4.68002V11.96C8.83984 13.0633 9.27813 14.1214 10.0583 14.9016C10.8384 15.6817 11.8965 16.12 12.9998 16.12C14.1031 16.12 15.1613 15.6817 15.9414 14.9016C16.7216 14.1214 17.1598 13.0633 17.1598 11.96ZM10.9198 11.96V4.68002C10.9198 4.12837 11.139 3.59931 11.5291 3.20924C11.9191 2.81916 12.4482 2.60002 12.9998 2.60002C13.5515 2.60002 14.0805 2.81916 14.4706 3.20924C14.8607 3.59931 15.0798 4.12837 15.0798 4.68002V11.96C15.0798 12.5117 14.8607 13.0407 14.4706 13.4308C14.0805 13.8209 13.5515 14.04 12.9998 14.04C12.4482 14.04 11.9191 13.8209 11.5291 13.4308C11.139 13.0407 10.9198 12.5117 10.9198 11.96Z" fill="white"/>
<path d="M12.9996 25.48C13.2755 25.48 13.54 25.3704 13.735 25.1754C13.9301 24.9803 14.0396 24.7158 14.0396 24.44V21.2576C16.327 21.0019 18.4399 19.9123 19.9747 18.1972C21.5095 16.4821 22.3586 14.2616 22.3596 11.96C22.3596 11.6842 22.2501 11.4196 22.055 11.2246C21.86 11.0296 21.5955 10.92 21.3196 10.92C21.0438 10.92 20.7793 11.0296 20.5843 11.2246C20.3892 11.4196 20.2796 11.6842 20.2796 11.96C20.2796 13.8908 19.5126 15.7425 18.1474 17.1077C16.7821 18.473 14.9304 19.24 12.9996 19.24C11.0689 19.24 9.21718 18.473 7.85191 17.1077C6.48665 15.7425 5.71965 13.8908 5.71965 11.96C5.71965 11.6842 5.61008 11.4196 5.41504 11.2246C5.22 11.0296 4.95547 10.92 4.67965 10.92C4.40382 10.92 4.1393 11.0296 3.94426 11.2246C3.74922 11.4196 3.63965 11.6842 3.63965 11.96C3.64074 14.2616 4.4898 16.4821 6.0246 18.1972C7.55939 19.9123 9.67232 21.0019 11.9596 21.2576V24.44C11.9596 24.7158 12.0692 24.9803 12.2643 25.1754C12.4593 25.3704 12.7238 25.48 12.9996 25.48Z" fill="white"/>
</svg>
