<svg width="24" height="24" viewBox="0 0 24 24" fill="none" xmlns="http://www.w3.org/2000/svg">
<path fill-rule="evenodd" clip-rule="evenodd" d="M0 3C0 2.44772 0.447715 2 1 2H23C23.5523 2 24 2.44772 24 3V18C24 18.5523 23.5523 19 23 19H19C18.4477 19 18 18.5523 18 18C18 17.4477 18.4477 17 19 17H22V4H2V17H5C5.55228 17 6 17.4477 6 18C6 18.5523 5.55228 19 5 19H1C0.447715 19 0 18.5523 0 18V3Z" fill="#7D8086"/>
<path fill-rule="evenodd" clip-rule="evenodd" d="M11.9995 13C12.2785 13 12.5448 13.1165 12.7341 13.3214L19.6623 20.8214C19.9318 21.1133 20.0031 21.537 19.8438 21.9009C19.6846 22.2648 19.325 22.5 18.9277 22.5H5.07131C4.67405 22.5 4.31446 22.2648 4.15519 21.9009C3.99593 21.537 4.06719 21.1133 4.33676 20.8214L11.265 13.3214C11.4543 13.1165 11.7205 13 11.9995 13ZM7.35644 20.5H16.6426L11.9995 15.4737L7.35644 20.5Z" fill="#7D8086"/>
</svg>
