<svg width="40" height="40" viewBox="0 0 40 40" fill="none" xmlns="http://www.w3.org/2000/svg">
    <path d="M20.0013 25.8233C16.7857 25.8233 14.1777 23.2056 14.1777 20.0005C14.1777 16.7955 16.7958 14.1777 20.0013 14.1777C23.2067 14.1777 25.8248 16.7955 25.8248 20.0005C25.8248 23.2056 23.2067 25.8233 20.0013 25.8233ZM20.0013 15.6967C17.6313 15.6967 15.6969 17.6309 15.6969 20.0005C15.6969 22.3701 17.6313 24.3043 20.0013 24.3043C22.3712 24.3043 24.3056 22.3701 24.3056 20.0005C24.3056 17.6208 22.3712 15.6967 20.0013 15.6967Z" fill="#BEBEBE"/>
    <path d="M22.6965 40H17.3035C16.7869 40 16.3261 39.6861 16.1286 39.2152L14.5436 35.3519C14.022 35.1646 13.5055 34.9468 12.9991 34.7089L9.15053 36.319C8.67958 36.5215 8.12761 36.4101 7.76807 36.0506L3.94987 32.238C3.58526 31.8734 3.47892 31.3266 3.68148 30.8557L5.29181 26.9975C5.0538 26.5013 4.83606 25.9747 4.64869 25.4532L0.78491 23.8684C0.303836 23.6709 0 23.2051 0 22.6937V17.3013C0 16.7848 0.313964 16.3241 0.78491 16.1266L4.64869 14.5418C4.83606 14.0203 5.0538 13.5038 5.29181 12.9975L3.68148 9.14937C3.47892 8.67848 3.59033 8.12658 3.94987 7.76709L7.76301 3.95443C8.12761 3.58987 8.67452 3.48354 9.14546 3.68608L13.0042 5.2962C13.5106 5.05823 14.0271 4.84051 14.5487 4.65316L16.1337 0.789873C16.3312 0.303797 16.7971 0 17.3085 0H22.7016C23.2181 0 23.6789 0.313924 23.8764 0.78481L25.4615 4.6481C25.983 4.83544 26.4996 5.05316 27.006 5.29114L30.8545 3.68101C31.3255 3.47848 31.8775 3.58987 32.237 3.94937L36.0501 7.76203C36.4147 8.12658 36.5211 8.67342 36.3185 9.1443L34.7082 13.0025C34.9462 13.4987 35.1639 14.0253 35.3513 14.5468L39.2151 16.1316C39.6962 16.3241 40 16.7899 40 17.3063V22.6987C40 23.2152 39.686 23.676 39.2151 23.8734L35.3513 25.4582C35.1639 25.9797 34.9462 26.4962 34.7082 27.0025L36.3185 30.8506C36.5211 31.3215 36.4097 31.8734 36.0501 32.2329L32.237 36.0456C31.8724 36.4101 31.3255 36.5165 30.8545 36.3139L26.9958 34.7038C26.4996 34.9418 25.9729 35.1595 25.4513 35.3468L23.8663 39.2101C23.6739 39.6861 23.208 40 22.6965 40ZM17.4706 38.481H22.5244L24.0841 34.6684C24.2208 34.3291 24.4993 34.0709 24.8437 33.9494C25.3855 33.762 25.9172 33.5443 26.4287 33.2911C26.7578 33.1291 27.1376 33.1241 27.4769 33.2557L31.285 34.8506L34.8652 31.2709L33.2802 27.4734C33.1384 27.1342 33.1536 26.7544 33.3156 26.4253C33.5688 25.9089 33.7866 25.3772 33.9739 24.8405C34.0904 24.4962 34.3537 24.2177 34.693 24.081L38.4859 22.5316V17.4785L34.6727 15.919C34.3335 15.7823 34.0752 15.5038 33.9537 15.1595C33.7663 14.6177 33.5486 14.0861 33.2954 13.5747C33.1333 13.2456 33.1282 12.8658 33.2599 12.5266L34.855 8.71899L31.285 5.14937L27.487 6.73418C27.1477 6.87595 26.7679 6.86076 26.4388 6.69873C25.9223 6.44557 25.3906 6.22785 24.8538 6.04051C24.5094 5.92405 24.2309 5.66076 24.0942 5.32152L22.5345 1.51899H17.4807L15.921 5.33165C15.7843 5.67089 15.5058 5.92911 15.1614 6.05063C14.6196 6.23797 14.0879 6.4557 13.5764 6.70886C13.2472 6.87089 12.8675 6.87595 12.5282 6.7443L8.72009 5.14937L5.15002 8.71899L6.73503 12.5165C6.87682 12.8557 6.86163 13.2354 6.69958 13.5646C6.44639 14.081 6.22864 14.6127 6.04127 15.1494C5.9248 15.4937 5.66148 15.7722 5.32219 15.9089L1.51918 17.4684V22.5215L5.33232 24.081C5.6716 24.2177 5.92986 24.4962 6.0514 24.8405C6.23876 25.3823 6.45651 25.9139 6.70971 26.4253C6.87176 26.7544 6.87682 27.1342 6.74516 27.4734L5.15002 31.281L8.73022 34.8608L12.5282 33.276C12.8675 33.1342 13.2472 33.1494 13.5764 33.3114C14.0929 33.5646 14.6246 33.7823 15.1614 33.9696C15.5058 34.0861 15.7843 34.3494 15.921 34.6886L17.4706 38.481Z" fill="#BEBEBE"/>
</svg>
