<svg width="16" height="16" viewBox="0 0 16 16" fill="none" xmlns="http://www.w3.org/2000/svg">
<path d="M8.22672 4.88672C6.38672 4.88672 4.88672 6.38672 4.88672 8.22672C4.88672 10.0667 6.38672 11.5667 8.22672 11.5667C10.0667 11.5667 11.5667 10.0667 11.5667 8.22672C11.5601 6.38672 10.0667 4.88672 8.22672 4.88672ZM10.3401 8.22672C10.3401 9.39339 9.38672 10.3401 8.22672 10.3401C7.06005 10.3401 6.11339 9.39339 6.11339 8.22672C6.11339 7.06005 7.06005 6.11339 8.22672 6.11339C9.39339 6.11339 10.3401 7.06005 10.3401 8.22672Z" fill="#838383"/>
<path d="M15.1267 6.76675L15.06 6.71342H15.0534C14.7 6.44008 14.2667 6.29342 13.8067 6.32008C13.7267 6.08675 13.6334 5.86008 13.5267 5.63342C13.8467 5.33342 14.06 4.94008 14.12 4.50008C14.1934 3.99342 14.06 3.48675 13.7534 3.08008C13.12 2.23342 11.92 2.06675 11.0734 2.70008C10.98 2.76675 10.9 2.84675 10.82 2.92675C10.6 2.82008 10.3667 2.72008 10.1334 2.64008C10.1467 2.20008 10.0134 1.77342 9.74005 1.42008C9.43338 1.01342 8.98005 0.753417 8.47338 0.686751C7.44005 0.540084 6.46671 1.28008 6.32671 2.32675C6.31338 2.42675 6.30671 2.53342 6.31338 2.64008C6.08005 2.72008 5.85338 2.81342 5.63338 2.92008C4.96671 2.21342 3.86005 2.11342 3.07338 2.70675C2.23338 3.34675 2.06671 4.55342 2.70671 5.39342C2.77338 5.48008 2.84005 5.56008 2.92005 5.63342C2.81338 5.85342 2.72005 6.08675 2.64005 6.32008C2.20005 6.30675 1.77338 6.44008 1.42005 6.71342C1.01338 7.02008 0.753381 7.47342 0.686714 7.98008C0.620047 8.48675 0.753381 8.98675 1.06005 9.39342C1.36671 9.80008 1.82005 10.0601 2.32671 10.1267C2.43338 10.1401 2.54005 10.1468 2.64671 10.1401C2.72671 10.3734 2.82005 10.6001 2.93338 10.8201C2.61338 11.1201 2.40005 11.5134 2.34005 11.9534C2.26671 12.4601 2.40005 12.9667 2.70671 13.3734C3.33338 14.2201 4.53338 14.3934 5.38005 13.7534C5.47338 13.6867 5.55338 13.6068 5.63338 13.5268C5.85338 13.6334 6.08005 13.7267 6.31338 13.8067C6.28005 14.7734 6.98671 15.6334 7.96671 15.7601C8.05338 15.7734 8.14005 15.7801 8.22671 15.7801C8.64005 15.7801 9.04671 15.6467 9.38005 15.3867C9.78671 15.0801 10.0467 14.6267 10.1134 14.1201C10.1267 14.0134 10.1334 13.9067 10.1267 13.8067C10.36 13.7267 10.5934 13.6334 10.8134 13.5268C11.1134 13.8468 11.5067 14.0601 11.9467 14.1201C12.4534 14.1868 12.96 14.0601 13.3667 13.7534C14.2134 13.1201 14.38 11.9134 13.7467 11.0734C13.68 10.9801 13.6 10.9001 13.52 10.8201C13.6267 10.6001 13.72 10.3734 13.8 10.1401C14.2467 10.1601 14.6667 10.0268 15.02 9.76008C15.4267 9.45342 15.6934 9.00675 15.7667 8.50008C15.8734 7.84675 15.6267 7.20008 15.1267 6.76675ZM12.7067 9.56675C12.62 9.87342 12.5 10.1667 12.3467 10.4467C12.12 10.8667 12.2467 11.3934 12.6334 11.6667C12.94 11.8868 13.0067 12.3201 12.7867 12.6334C12.5667 12.9401 12.1334 13.0134 11.82 12.7867C11.76 12.7401 11.7067 12.6934 11.6667 12.6334C11.3934 12.2468 10.8667 12.1267 10.4534 12.3534C10.1734 12.5068 9.88005 12.6267 9.57338 12.7134C9.12005 12.8534 8.84005 13.3067 8.91338 13.7667C8.97338 14.1401 8.71338 14.4934 8.34005 14.5534C8.16005 14.5868 7.98005 14.5401 7.82671 14.4334C7.68005 14.3267 7.58005 14.1667 7.55338 13.9867C7.54005 13.9134 7.54005 13.8467 7.55338 13.7734C7.63338 13.3067 7.34671 12.8534 6.89338 12.7134C6.58671 12.6267 6.29338 12.5001 6.01338 12.3534C5.88005 12.2801 5.73338 12.2401 5.57338 12.2401C5.26671 12.2401 4.98005 12.3868 4.80005 12.6334C4.57338 12.9401 4.14005 13.0068 3.83338 12.7867C3.52671 12.5601 3.46005 12.1267 3.68671 11.8201C3.72671 11.7601 3.78005 11.7134 3.83338 11.6734C4.22005 11.4001 4.34005 10.8734 4.12005 10.4601C3.96671 10.1801 3.84671 9.88008 3.76005 9.57342C3.62005 9.11342 3.16005 8.83342 2.69338 8.92008C2.32005 8.98008 1.96671 8.72008 1.90671 8.34675C1.88005 8.16675 1.92005 7.98008 2.02671 7.83342C2.13338 7.68675 2.29338 7.58675 2.47338 7.56008C2.54671 7.54675 2.62005 7.54675 2.68671 7.56008C3.15338 7.64008 3.60671 7.35342 3.74671 6.90008C3.84005 6.58008 3.96005 6.28008 4.10671 6.00008C4.32671 5.58675 4.20671 5.06675 3.82671 4.79342C3.52005 4.56675 3.45338 4.13342 3.68005 3.82675C3.78671 3.68008 3.94671 3.58008 4.13338 3.55342C4.31338 3.52675 4.50005 3.56675 4.64671 3.68008C4.70671 3.72008 4.75338 3.77342 4.79338 3.82675C5.06671 4.20675 5.58671 4.33342 6.00005 4.11342C6.28005 3.96008 6.58005 3.84008 6.88671 3.75342C7.34005 3.61342 7.62005 3.16008 7.54005 2.69342C7.51338 2.51342 7.55338 2.32675 7.66005 2.18008C7.76671 2.03342 7.92671 1.93342 8.10671 1.90675C8.48005 1.84675 8.83338 2.10675 8.89338 2.48008C8.90671 2.55342 8.90671 2.62675 8.89338 2.69342C8.81338 3.16008 9.10005 3.61342 9.55338 3.75342C9.86005 3.84008 10.16 3.96675 10.44 4.11342C10.86 4.34008 11.38 4.21342 11.6534 3.83342C11.76 3.68675 11.92 3.58675 12.1 3.56008C12.28 3.53342 12.4667 3.57342 12.6134 3.68008C12.76 3.78675 12.86 3.94675 12.8934 4.13342C12.92 4.31342 12.88 4.50008 12.7734 4.64675C12.7267 4.70675 12.68 4.76008 12.62 4.80008C12.24 5.06675 12.12 5.58675 12.34 6.00008C12.4934 6.28008 12.6134 6.57342 12.7 6.88008C12.84 7.33342 13.2934 7.62008 13.7667 7.54008C13.9467 7.50675 14.1267 7.54675 14.28 7.65342C14.4334 7.76008 14.5334 7.91342 14.5667 8.09342C14.6134 8.33342 14.52 8.58675 14.3334 8.74008C14.18 8.87342 13.9734 8.93342 13.7667 8.89342C13.3067 8.82675 12.8467 9.11342 12.7067 9.56675Z" fill="#838383"/>
</svg>
