<svg width="24" height="24" viewBox="0 0 24 24" fill="none" xmlns="http://www.w3.org/2000/svg">
<path d="M17.7604 9.11998C18.5905 9.13319 19.4031 8.88137 20.0802 8.4011C20.7573 7.92083 21.2636 7.23714 21.5256 6.4494C21.7875 5.66166 21.7914 4.81091 21.5367 4.0208C21.282 3.23069 20.782 2.54238 20.1093 2.05592C19.4367 1.56945 18.6264 1.31017 17.7962 1.31576C16.9661 1.32135 16.1594 1.59153 15.4933 2.08701C14.8273 2.5825 14.3366 3.27748 14.0925 4.07095C13.8485 4.86442 13.8639 5.71504 14.1364 6.49918L8.80601 9.16318C8.25601 8.6614 7.572 8.33032 6.83725 8.21025C6.10249 8.09018 5.34867 8.18628 4.66755 8.48687C3.98642 8.78746 3.40737 9.27957 3.00086 9.9033C2.59435 10.527 2.37793 11.2555 2.37793 12C2.37793 12.7445 2.59435 13.4729 3.00086 14.0967C3.40737 14.7204 3.98642 15.2125 4.66755 15.5131C5.34867 15.8137 6.10249 15.9098 6.83725 15.7897C7.572 15.6696 8.25601 15.3386 8.80601 14.8368L14.1364 17.5008C13.8358 18.3898 13.8696 19.358 14.2316 20.2239C14.5936 21.0898 15.2589 21.794 16.1029 22.2045C16.9468 22.615 17.9115 22.7037 18.8162 22.454C19.7209 22.2043 20.5035 21.6333 21.0173 20.8479C21.5312 20.0626 21.741 19.1168 21.6076 18.1878C21.4741 17.2589 21.0065 16.4104 20.2924 15.8015C19.5782 15.1926 18.6666 14.8649 17.7282 14.88C16.7898 14.895 15.8891 15.2517 15.1948 15.8832L9.86441 13.2192C10.1523 12.4319 10.1523 11.5681 9.86441 10.7808L15.1948 8.11678C15.8951 8.75917 16.8101 9.11693 17.7604 9.11998ZM17.7604 3.35998C18.1402 3.35998 18.5114 3.47259 18.8271 3.68356C19.1429 3.89453 19.3889 4.19439 19.5343 4.54523C19.6796 4.89606 19.7176 5.28211 19.6435 5.65455C19.5694 6.027 19.3866 6.36911 19.1181 6.63762C18.8495 6.90614 18.5074 7.089 18.135 7.16309C17.7625 7.23717 17.3765 7.19915 17.0257 7.05383C16.6748 6.90851 16.375 6.66242 16.164 6.34667C15.953 6.03093 15.8404 5.65972 15.8404 5.27998C15.8404 4.77076 16.0427 4.2824 16.4028 3.92233C16.7628 3.56226 17.2512 3.35998 17.7604 3.35998ZM6.24041 13.92C5.86067 13.92 5.48946 13.8074 5.17372 13.5964C4.85797 13.3854 4.61188 13.0856 4.46656 12.7347C4.32124 12.3839 4.28322 11.9978 4.3573 11.6254C4.43139 11.253 4.61425 10.9109 4.88277 10.6423C5.15128 10.3738 5.49339 10.191 5.86584 10.1169C6.23828 10.0428 6.62433 10.0808 6.97516 10.2261C7.326 10.3715 7.62586 10.6175 7.83683 10.9333C8.04781 11.249 8.16041 11.6202 8.16041 12C8.16041 12.5092 7.95813 12.9976 7.59806 13.3576C7.23799 13.7177 6.74963 13.92 6.24041 13.92ZM17.7604 16.8C18.1402 16.8 18.5114 16.9126 18.8271 17.1236C19.1429 17.3345 19.3889 17.6344 19.5343 17.9852C19.6796 18.3361 19.7176 18.7221 19.6435 19.0946C19.5694 19.467 19.3866 19.8091 19.1181 20.0776C18.8495 20.3461 18.5074 20.529 18.135 20.6031C17.7625 20.6772 17.3765 20.6391 17.0257 20.4938C16.6748 20.3485 16.375 20.1024 16.164 19.7867C15.953 19.4709 15.8404 19.0997 15.8404 18.72C15.8404 18.2108 16.0427 17.7224 16.4028 17.3623C16.7628 17.0023 17.2512 16.8 17.7604 16.8Z" fill="#FE7009"/>
</svg>
