<svg width="25" height="25" viewBox="0 0 25 25" fill="none" xmlns="http://www.w3.org/2000/svg">
<path d="M18.5 9.50003C19.3646 9.51379 20.2111 9.25148 20.9164 8.7512C21.6218 8.25092 22.1492 7.53874 22.422 6.71818C22.6949 5.89762 22.699 5.01142 22.4336 4.18839C22.1683 3.36535 21.6475 2.64837 20.9468 2.14163C20.2461 1.63489 19.402 1.36481 18.5373 1.37064C17.6726 1.37646 16.8323 1.65789 16.1384 2.17402C15.4446 2.69015 14.9335 3.41409 14.6793 4.24062C14.4251 5.06716 14.4411 5.95322 14.725 6.77003L9.17248 9.54503C8.59956 9.02234 7.88706 8.67747 7.12168 8.55239C6.35631 8.42732 5.57109 8.52743 4.86158 8.84054C4.15208 9.15366 3.54889 9.66627 3.12545 10.316C2.702 10.9657 2.47656 11.7245 2.47656 12.5C2.47656 13.2756 2.702 14.0344 3.12545 14.6841C3.54889 15.3338 4.15208 15.8464 4.86158 16.1595C5.57109 16.4726 6.35631 16.5727 7.12168 16.4477C7.88706 16.3226 8.59956 15.9777 9.17248 15.455L14.725 18.23C14.4118 19.1561 14.4471 20.1646 14.8242 21.0666C15.2012 21.9686 15.8943 22.7021 16.7734 23.1297C17.6525 23.5574 18.6574 23.6498 19.5998 23.3897C20.5422 23.1295 21.3573 22.5347 21.8926 21.7166C22.4279 20.8986 22.6465 19.9134 22.5075 18.9457C22.3684 17.978 21.8814 17.0942 21.1375 16.4599C20.3936 15.8256 19.4439 15.4843 18.4664 15.5C17.4889 15.5157 16.5507 15.8872 15.8275 16.545L10.275 13.77C10.5749 12.9499 10.5749 12.0501 10.275 11.23L15.8275 8.45503C16.557 9.12418 17.5101 9.49685 18.5 9.50003ZM18.5 3.50003C18.8955 3.50003 19.2822 3.61733 19.6111 3.83709C19.94 4.05685 20.1964 4.36921 20.3477 4.73466C20.4991 5.10011 20.5387 5.50225 20.4616 5.89021C20.3844 6.27817 20.1939 6.63454 19.9142 6.91424C19.6345 7.19395 19.2781 7.38443 18.8902 7.4616C18.5022 7.53877 18.1001 7.49916 17.7346 7.34779C17.3692 7.19641 17.0568 6.94007 16.837 6.61117C16.6173 6.28227 16.5 5.89559 16.5 5.50003C16.5 4.9696 16.7107 4.46089 17.0858 4.08582C17.4608 3.71074 17.9696 3.50003 18.5 3.50003ZM6.49998 14.5C6.10442 14.5 5.71774 14.3827 5.38884 14.163C5.05994 13.9432 4.8036 13.6308 4.65222 13.2654C4.50085 12.8999 4.46124 12.4978 4.53841 12.1098C4.61558 11.7219 4.80606 11.3655 5.08577 11.0858C5.36547 10.8061 5.72184 10.6156 6.1098 10.5385C6.49776 10.4613 6.8999 10.5009 7.26535 10.6523C7.6308 10.8036 7.94316 11.06 8.16292 11.3889C8.38268 11.7178 8.49998 12.1045 8.49998 12.5C8.49998 13.0305 8.28927 13.5392 7.91419 13.9142C7.53912 14.2893 7.03041 14.5 6.49998 14.5ZM18.5 17.5C18.8955 17.5 19.2822 17.6173 19.6111 17.8371C19.94 18.0569 20.1964 18.3692 20.3477 18.7347C20.4991 19.1001 20.5387 19.5022 20.4616 19.8902C20.3844 20.2782 20.1939 20.6345 19.9142 20.9142C19.6345 21.1939 19.2781 21.3844 18.8902 21.4616C18.5022 21.5388 18.1001 21.4992 17.7346 21.3478C17.3692 21.1964 17.0568 20.9401 16.837 20.6112C16.6173 20.2823 16.5 19.8956 16.5 19.5C16.5 18.9696 16.7107 18.4609 17.0858 18.0858C17.4608 17.7107 17.9696 17.5 18.5 17.5Z" fill="white"/>
</svg>
