<svg width="24" height="24" viewBox="0 0 24 24" fill="none" xmlns="http://www.w3.org/2000/svg">
<path fill-rule="evenodd" clip-rule="evenodd" d="M7 2H17C18.6569 2 20 3.34315 20 5V19C20 20.6569 18.6569 22 17 22H7C5.34314 22 4 20.6569 4 19V5C4 3.34315 5.34315 2 7 2ZM7 4C6.44772 4 6 4.44772 6 5V19C6 19.5523 6.44772 20 7 20H17C17.5523 20 18 19.5523 18 19V5C18 4.44772 17.5523 4 17 4H7Z" fill="#838383"/>
<path fill-rule="evenodd" clip-rule="evenodd" d="M12 7C11.4477 7 11 7.44772 11 8C11 8.55228 11.4477 9 12 9C12.5523 9 13 8.55228 13 8C13 7.44772 12.5523 7 12 7ZM9 8C9 6.34315 10.3431 5 12 5C13.6569 5 15 6.34315 15 8C15 9.65685 13.6569 11 12 11C10.3431 11 9 9.65685 9 8Z" fill="#838383"/>
<path fill-rule="evenodd" clip-rule="evenodd" d="M12 15C11.4477 15 11 15.4477 11 16C11 16.5523 11.4477 17 12 17C12.5523 17 13 16.5523 13 16C13 15.4477 12.5523 15 12 15ZM9 16C9 14.3431 10.3431 13 12 13C13.6569 13 15 14.3431 15 16C15 17.6569 13.6569 19 12 19C10.3431 19 9 17.6569 9 16Z" fill="#838383"/>
</svg>
