<svg width="25" height="25" viewBox="0 0 25 25" fill="none" xmlns="http://www.w3.org/2000/svg">
<path fill-rule="evenodd" clip-rule="evenodd" d="M17 7.5C17 9.98528 14.9853 12 12.5 12C10.0147 12 8 9.98528 8 7.5C8 5.01472 10.0147 3 12.5 3C14.9853 3 17 5.01472 17 7.5ZM12.5 10C13.8807 10 15 8.88071 15 7.5C15 6.11929 13.8807 5 12.5 5C11.1193 5 10 6.11929 10 7.5C10 8.88071 11.1193 10 12.5 10Z" fill="#EEEEEE"/>
<path fill-rule="evenodd" clip-rule="evenodd" d="M6.37568 17.8553C4.84498 18.9832 4 20.46 4 22C4 22.5523 3.55228 23 3 23C2.44772 23 2 22.5523 2 22C2 19.674 3.28166 17.6508 5.18929 16.2452C7.09729 14.8393 9.68529 14 12.5 14C15.3147 14 17.9027 14.8393 19.8107 16.2452C21.7183 17.6508 23 19.674 23 22C23 22.5523 22.5523 23 22 23C21.4477 23 21 22.5523 21 22C21 20.46 20.155 18.9832 18.6243 17.8553C17.094 16.7277 14.932 16 12.5 16C10.068 16 7.906 16.7277 6.37568 17.8553Z" fill="#EEEEEE"/>
</svg>
