<svg width="24" height="24" viewBox="0 0 24 24" fill="none" xmlns="http://www.w3.org/2000/svg">
<path fill-rule="evenodd" clip-rule="evenodd" d="M16.3197 7.19988C16.3197 9.58575 14.3856 11.5199 11.9997 11.5199C9.61382 11.5199 7.67969 9.58575 7.67969 7.19988C7.67969 4.81401 9.61382 2.87988 11.9997 2.87988C14.3856 2.87988 16.3197 4.81401 16.3197 7.19988ZM11.9997 9.59988C13.3252 9.59988 14.3997 8.52537 14.3997 7.19988C14.3997 5.8744 13.3252 4.79988 11.9997 4.79988C10.6742 4.79988 9.59969 5.8744 9.59969 7.19988C9.59969 8.52537 10.6742 9.59988 11.9997 9.59988Z" fill="#FE7009"/>
<path fill-rule="evenodd" clip-rule="evenodd" d="M6.12058 17.141C4.65111 18.2238 3.83992 19.6416 3.83992 21.1199C3.83992 21.6501 3.41012 22.0799 2.87992 22.0799C2.34973 22.0799 1.91992 21.6501 1.91992 21.1199C1.91992 18.887 3.15032 16.9447 4.98164 15.5953C6.81332 14.2457 9.2978 13.4399 11.9999 13.4399C14.702 13.4399 17.1865 14.2457 19.0182 15.5953C20.8495 16.9447 22.0799 18.887 22.0799 21.1199C22.0799 21.6501 21.6501 22.0799 21.1199 22.0799C20.5897 22.0799 20.1599 21.6501 20.1599 21.1199C20.1599 19.6416 19.3487 18.2238 17.8793 17.141C16.4102 16.0585 14.3346 15.3599 11.9999 15.3599C9.66521 15.3599 7.58968 16.0585 6.12058 17.141Z" fill="#FE7009"/>
</svg>
