<svg width="36" height="36" viewBox="0 0 36 36" fill="none" xmlns="http://www.w3.org/2000/svg">
<rect x="16.5" y="15" width="3" height="6" rx="1.5" fill="#D9310B"/>
<rect x="16.5" y="24" width="3" height="3" rx="1.5" fill="#D9310B"/>
<g clip-path="url(#clip0)">
<path fill-rule="evenodd" clip-rule="evenodd" d="M17.992 3C18.535 2.99977 19.0356 3.29451 19.3003 3.77027L26.8126 17.2754L34.3104 30.7657C34.569 31.231 34.5627 31.799 34.2938 32.2584C34.0248 32.7178 33.5335 33 33.0025 33H2.99751C2.46648 33 1.97517 32.7178 1.70624 32.2584C1.43731 31.799 1.43099 31.231 1.68962 30.7657L16.6844 3.77136C16.9487 3.29538 17.449 3.00023 17.992 3ZM17.9939 7.58787L5.54722 29.995H30.4528L24.1973 18.7399L17.9939 7.58787Z" fill="#D9310B"/>
</g>
<defs>
<clipPath id="clip0">
<rect x="1.5" y="3" width="33" height="30" fill="white"/>
</clipPath>
</defs>
</svg>
